<svg width="1063" height="1063" viewBox="0 0 1063 1063" fill="none" xmlns="http://www.w3.org/2000/svg">
<path d="M643.052 531.524C643.052 593.119 593.119 643.052 531.524 643.052C469.929 643.052 419.996 593.119 419.996 531.524C419.996 469.929 469.929 419.996 531.524 419.996C593.119 419.996 643.052 469.929 643.052 531.524ZM531.524 15.1075C785.707 15.1075 997.019 198.761 1039.97 440.608H756.671C720.695 351.603 633.465 288.774 531.524 288.774C429.584 288.774 342.353 351.603 306.378 440.608H23.0821C66.0291 198.761 277.342 15.1075 531.524 15.1075ZM531.524 1047.94C277.342 1047.94 66.0291 864.288 23.0821 622.441H306.378C342.353 711.446 429.584 774.274 531.524 774.274C633.465 774.274 720.695 711.446 756.671 622.441H1039.97C997.019 864.288 785.707 1047.94 531.524 1047.94Z" stroke="white" stroke-width="30"/>
</svg>
