<svg width="95" height="96" viewBox="0 0 95 96" fill="none" xmlns="http://www.w3.org/2000/svg">
<path d="M58.4944 48.41C58.3854 54.6407 53.246 59.6034 47.0152 59.4944C40.7844 59.3854 35.8218 54.246 35.9308 48.0152C36.0398 41.7844 41.1792 36.8218 47.41 36.9308C53.6408 37.0398 58.6034 42.1792 58.4944 48.41Z" fill="white"/>
<path fill-rule="evenodd" clip-rule="evenodd" d="M46.3836 95.5962C70.2546 96.0138 90.3116 78.7076 93.9979 55.8023L66.2459 55.3168C63.3202 63.1553 55.6992 68.6745 46.8573 68.5198C38.0154 68.3651 30.5922 62.5827 27.9424 54.6466L0.190449 54.161C3.07325 77.1812 22.5126 95.1785 46.3836 95.5962ZM28.1793 41.1084L0.427312 40.6229C4.11363 17.7176 24.1706 0.411376 48.0416 0.829022C71.9126 1.24667 91.352 19.244 94.2348 42.2641L66.4828 41.7786C63.833 33.8425 56.4098 28.06 47.5679 27.9053C38.726 27.7507 31.1051 33.2699 28.1793 41.1084ZM58.4944 48.41C58.3854 54.6407 53.246 59.6034 47.0152 59.4944C40.7844 59.3854 35.8218 54.246 35.9308 48.0152C36.0398 41.7844 41.1792 36.8218 47.41 36.9308C53.6408 37.0398 58.6034 42.1792 58.4944 48.41Z" fill="white"/>
</svg>
